<svg width="450" height="176" viewBox="0 0 450 176" fill="none" xmlns="http://www.w3.org/2000/svg">
<path d="M141.921 144.885H119.792V173.301H78.7268V144.885H0V117.53L66.8114 24.8594H110.43L49.7894 111.592H80.0035V86.3568H119.792V111.592H141.921V144.885Z" fill="white"/>
<path d="M449.999 144.885H427.871V173.301H386.805V144.885H308.078V117.53L374.89 24.8594H418.508L357.868 111.592H388.082V86.3568H427.871V111.592H449.999V144.885Z" fill="#FFCA00"/>
<path fill-rule="evenodd" clip-rule="evenodd" d="M159.618 105.953C160.332 118.952 163.034 130.426 167.724 140.375C173.398 151.968 181.2 160.803 191.13 166.882C201.059 172.961 212.407 176.001 225.174 176.001C237.798 176.001 249.075 172.961 259.005 166.882C268.934 160.803 276.665 151.968 282.197 140.375C287.871 128.641 290.708 114.786 290.708 98.8112C290.708 97.6118 290.692 96.4247 290.661 95.25L262.641 113.662L248.185 105.978C247.589 117.212 245.521 125.708 241.983 131.468C237.869 138.254 232.266 141.647 225.174 141.647C217.939 141.647 212.194 138.254 207.939 131.468C205.011 126.538 203.126 119.604 202.281 110.664L193.932 113.662L179.156 98.9359L159.618 105.953Z" fill="white"/>
<path fill-rule="evenodd" clip-rule="evenodd" d="M283.168 56.8506C280.05 49.144 276.159 42.3612 271.497 36.502C263.563 26.2279 254.091 19.1862 243.083 15.377C232.074 11.5678 220.405 11.0157 208.075 13.7209C195.607 16.4565 185.181 21.8566 176.795 29.9211C168.409 37.9857 162.711 48.3556 159.701 61.031C157.232 71.6716 157.06 83.4322 159.186 96.3128L176.874 85.7834L194.243 95.9206L201.352 91.6883C198.639 78.3871 198.487 68.1951 200.896 61.1122C203.558 53.435 208.421 48.8214 215.486 47.2712C222.413 45.7515 228.632 47.9335 234.144 53.8173C238.842 58.5952 242.695 66.4416 245.704 77.3566L261.345 81.1978C263.318 80.4452 276.79 65.1234 283.168 56.8506Z" fill="white"/>
</svg>
