<svg width="357" height="158" viewBox="0 0 357 158" fill="none" xmlns="http://www.w3.org/2000/svg">
<path d="M101.177 71.6505C96.2321 71.7195 91.3365 70.6608 86.8619 68.5546C82.6854 66.6002 78.9305 63.8491 75.8078 60.4556C72.7543 57.0915 70.3467 53.1935 68.7055 48.9567C67.0266 44.7154 66.164 40.195 66.1631 35.6333C66.1637 26.3604 69.7482 17.4466 76.167 10.7558C79.3587 7.43676 83.1583 4.76227 87.3593 2.87791C91.8078 0.923585 96.6227 -0.0565799 101.481 0.00316778C106.426 -0.0658233 111.321 0.992925 115.796 3.09904C119.999 5.09492 123.758 7.91487 126.85 11.3916C129.9 14.7583 132.291 18.6683 133.897 22.9182C135.524 27.0677 136.376 31.4804 136.412 35.9374C136.383 40.5536 135.444 45.1188 133.648 49.3713C130.245 57.9772 123.623 64.918 115.188 68.7205C110.787 70.7057 106.005 71.7057 101.177 71.6505ZM82.91 35.9374C82.9114 38.617 83.3119 41.2814 84.0984 43.8429C84.855 46.314 86.0535 48.6273 87.6357 50.6704C89.1885 52.5916 91.1282 54.1644 93.3285 55.2866C95.8016 56.5052 98.5312 57.1119 101.287 57.0557C104.167 57.1604 107.025 56.5126 109.578 55.176C111.834 53.9702 113.804 52.292 115.354 50.2558C116.896 48.1836 118.057 45.8528 118.781 43.373C119.528 40.8421 119.91 38.2172 119.914 35.5781C119.884 32.881 119.437 30.2048 118.587 27.6449C117.838 25.1822 116.628 22.8842 115.022 20.8727C113.431 18.9204 111.443 17.3282 109.191 16.2012C106.683 15.0266 103.947 14.4178 101.177 14.4178C98.4072 14.4178 95.6712 15.0266 93.1627 16.2012C90.926 17.4001 88.9599 19.0467 87.387 21.0385C85.8155 23.066 84.6433 25.3735 83.9325 27.8384C83.1825 30.4705 82.8378 33.2015 82.91 35.9374Z" fill="white"/>
<path d="M17.7191 0.5L32.9461 32.9514L48.3665 0.5H66.1636L40.9879 46.9934V71.0693H24.8766V46.9934L0.00488281 0.5H17.7191Z" fill="white"/>
<path d="M175.484 57.2208C177.73 57.3002 179.948 56.6927 181.84 55.4794C183.58 54.2887 185.019 52.708 186.041 50.8632C187.148 48.7884 187.913 46.5482 188.307 44.2292C188.75 41.7197 188.972 39.1761 188.97 36.6277V0.5H203.644V36.6277C203.684 41.2866 203.127 45.9313 201.986 50.4486C200.979 54.4182 199.246 58.167 196.874 61.5052C194.614 64.7023 191.619 67.3093 188.141 69.1067C184.203 71.0263 179.863 71.9742 175.484 71.8709C170.989 71.9992 166.534 71.0014 162.523 68.9685C159.043 67.1362 156.057 64.4905 153.818 61.2565C151.499 57.862 149.831 54.0659 148.899 50.0616C147.835 45.7009 147.306 41.2269 147.324 36.7383V0.5H161.998V36.6277C161.979 39.2343 162.22 41.8362 162.716 44.395C163.132 46.6897 163.916 48.902 165.038 50.9461C166.033 52.7852 167.454 54.3587 169.183 55.5346C171.066 56.7178 173.262 57.3054 175.484 57.2208Z" fill="white"/>
<path d="M63.3471 101.061H41.8745V157.394H25.5421V101.061H3.95898V86.7422H63.3471V101.061Z" fill="#B9B7B7"/>
<path d="M146.908 157.396V86.7437H177.058C180.284 86.7044 183.474 87.424 186.371 88.8445C189.12 90.2007 191.579 92.0783 193.612 94.3728C195.642 96.6351 197.26 99.236 198.393 102.057C199.516 104.756 200.107 107.647 200.134 110.571C200.14 113.631 199.588 116.666 198.503 119.527C197.432 122.319 195.88 124.901 193.916 127.156C191.899 129.512 189.387 131.393 186.559 132.664C183.73 133.935 180.656 134.565 177.556 134.509H163.241V157.313L146.908 157.396ZM163.241 120.384H176.561C177.525 120.379 178.476 120.153 179.339 119.721C180.201 119.29 180.953 118.665 181.535 117.896C183.081 115.78 183.825 113.184 183.635 110.571C183.669 109.115 183.444 107.664 182.972 106.286C182.608 105.18 182.015 104.163 181.231 103.301C180.554 102.529 179.701 101.932 178.744 101.56C177.865 101.205 176.928 101.017 175.98 101.007H163.268L163.241 120.384Z" fill="#B9B7B7"/>
<path d="M213.049 157.394V141.168H226.066V157.394H213.049Z" fill="white"/>
<path d="M240.928 157.563V117.095H258.781C260.689 117.067 262.579 117.474 264.308 118.284C265.923 119.051 267.377 120.121 268.591 121.435C269.763 122.726 270.699 124.214 271.355 125.83C272.029 127.402 272.377 129.095 272.377 130.805C272.374 132.564 272.046 134.307 271.41 135.947C270.751 137.561 269.816 139.049 268.646 140.342C267.475 141.646 266.044 142.691 264.446 143.41C262.713 144.203 260.824 144.6 258.919 144.571H250.601V157.563H240.928ZM250.601 136.306H258.477C259.043 136.304 259.602 136.176 260.113 135.932C260.624 135.689 261.075 135.335 261.434 134.896C262.259 133.699 262.649 132.255 262.539 130.805C262.562 129.971 262.441 129.138 262.18 128.345C261.949 127.709 261.592 127.126 261.13 126.631C260.735 126.179 260.231 125.836 259.665 125.636C259.138 125.421 258.576 125.308 258.007 125.305H250.601V136.306Z" fill="white"/>
<path d="M277.603 157.56V117.092H296.45C298.359 117.056 300.251 117.462 301.977 118.281C303.609 119.047 305.082 120.116 306.316 121.432C307.488 122.723 308.423 124.211 309.079 125.827C309.753 127.399 310.101 129.092 310.102 130.802C310.11 133.226 309.481 135.609 308.278 137.713C307.107 139.778 305.372 141.465 303.276 142.578L312.478 157.56H301.562L293.576 144.485H287.413V157.56H277.603ZM287.275 136.303H296.091C296.673 136.296 297.246 136.149 297.761 135.875C298.275 135.601 298.716 135.207 299.047 134.728C299.912 133.575 300.351 132.159 300.291 130.719C300.332 129.991 300.229 129.262 299.987 128.575C299.745 127.887 299.369 127.253 298.882 126.711C298.5 126.266 298.031 125.903 297.503 125.646C296.975 125.39 296.4 125.244 295.814 125.219H287.413L287.275 136.303Z" fill="white"/>
<path d="M335.36 158.003C332.447 158.032 329.562 157.428 326.904 156.234C324.435 155.122 322.21 153.535 320.354 151.563C318.556 149.641 317.131 147.4 316.154 144.956C315.158 142.526 314.642 139.926 314.634 137.299C314.634 134.649 315.169 132.026 316.209 129.587C317.23 127.152 318.713 124.937 320.575 123.064C322.525 121.072 324.856 119.495 327.43 118.426C330.004 117.357 332.767 116.819 335.554 116.845C338.476 116.819 341.369 117.422 344.038 118.614C348.939 120.859 352.774 124.923 354.733 129.947C355.715 132.342 356.221 134.905 356.225 137.493C356.225 140.144 355.689 142.767 354.65 145.205C353.628 147.627 352.166 149.839 350.339 151.728C348.442 153.649 346.202 155.197 343.734 156.289C341.094 157.444 338.241 158.028 335.36 158.003ZM324.472 137.41C324.472 138.958 324.715 140.497 325.19 141.971C325.633 143.393 326.346 144.717 327.291 145.868C328.211 147.036 329.382 147.98 330.718 148.633C332.212 149.324 333.838 149.682 335.485 149.682C337.131 149.682 338.757 149.324 340.252 148.633C341.571 147.956 342.738 147.015 343.678 145.868C344.582 144.692 345.265 143.363 345.696 141.943C346.161 140.487 346.394 138.966 346.387 137.438C346.384 135.898 346.142 134.369 345.668 132.904C345.23 131.475 344.506 130.149 343.54 129.007C342.556 127.815 341.312 126.865 339.904 126.228C338.495 125.591 336.96 125.284 335.416 125.331C333.761 125.296 332.122 125.656 330.635 126.381C329.316 127.059 328.15 128 327.208 129.145C326.28 130.3 325.586 131.623 325.163 133.043C324.712 134.455 324.479 135.928 324.472 137.41Z" fill="white"/>
<path d="M133.867 107.806C132.251 103.554 129.851 99.6443 126.792 96.2791C123.695 92.8438 119.935 90.0702 115.738 88.1248C111.254 86.0604 106.359 85.0398 101.423 85.1395C96.5614 85.1005 91.747 86.0994 87.3017 88.0695C83.1007 89.9539 79.301 92.6283 76.1094 95.9474C69.7173 102.655 66.1373 111.558 66.1055 120.825C66.1397 130.029 69.5861 138.893 75.7778 145.702C78.8994 149.104 82.6541 151.865 86.8319 153.829C91.3115 155.824 96.1604 156.855 101.064 156.855C105.968 156.855 110.817 155.824 115.296 153.829C123.718 150.016 130.327 143.078 133.729 134.48C135.525 130.227 136.464 125.662 136.492 121.046C136.448 116.508 135.557 112.018 133.867 107.806ZM110.792 125.966L113.085 139.317L101.092 133.015L89.098 139.317L91.3917 125.966L81.6917 116.513L95.0948 114.55L101.092 102.416L107.089 114.55L120.492 116.513L110.792 125.966Z" fill="#B9B7B7"/>
</svg>
