<svg width="136" height="60" viewBox="0 0 136 60" fill="none" xmlns="http://www.w3.org/2000/svg">
<g clip-path="url(#clip0_4032_10154)">
<path d="M38.4214 27.2091C36.5436 27.2353 34.6845 26.8332 32.9853 26.0334C31.3993 25.2912 29.9734 24.2465 28.7875 22.9578C27.628 21.6803 26.7137 20.2001 26.0905 18.5911C25.4529 16.9805 25.1253 15.2639 25.125 13.5317C25.1252 10.0103 26.4864 6.62529 28.924 4.08448C30.136 2.82408 31.5789 1.80846 33.1742 1.09288C34.8635 0.350728 36.6919 -0.021486 38.5368 0.00120295C40.4146 -0.0249962 42.2737 0.37706 43.9729 1.17685C45.5689 1.93478 46.9964 3.00565 48.1707 4.32591C49.329 5.60442 50.2367 7.08925 50.8468 8.7031C51.4645 10.2789 51.7882 11.9546 51.8018 13.6471C51.791 15.4001 51.4343 17.1337 50.7523 18.7486C49.46 22.0167 46.9454 24.6524 43.7421 26.0964C42.0706 26.8503 40.2548 27.23 38.4214 27.2091V27.2091ZM31.4846 13.6471C31.4851 14.6647 31.6372 15.6765 31.9359 16.6492C32.2232 17.5876 32.6783 18.4661 33.2791 19.2419C33.8688 19.9715 34.6054 20.5688 35.441 20.9949C36.3801 21.4577 37.4167 21.6881 38.4634 21.6667C39.557 21.7065 40.6421 21.4605 41.6117 20.9529C42.4686 20.495 43.2167 19.8577 43.805 19.0845C44.3907 18.2976 44.8314 17.4125 45.1063 16.4708C45.3903 15.5097 45.5352 14.5128 45.5366 13.5107C45.5254 12.4865 45.3554 11.4702 45.0329 10.4981C44.7483 9.56287 44.2889 8.69019 43.6791 7.92633C43.0748 7.18496 42.32 6.58032 41.4648 6.15236C40.5122 5.70631 39.4732 5.47511 38.4214 5.47511C37.3696 5.47511 36.3306 5.70631 35.378 6.15236C34.5286 6.60762 33.782 7.23292 33.1847 7.98931C32.5879 8.75922 32.1428 9.63549 31.8729 10.5715C31.5881 11.5711 31.4572 12.6081 31.4846 13.6471V13.6471Z" fill="white"/>
<path d="M6.72886 0.191406L12.5113 12.5147L18.3671 0.191406H25.1255L15.5651 17.8471V26.9899H9.44691V17.8471L0.00195312 0.191406H6.72886Z" fill="white"/>
<path d="M66.6393 21.7309C67.4923 21.7611 68.3343 21.5304 69.053 21.0696C69.7139 20.6175 70.2601 20.0172 70.6481 19.3167C71.0687 18.5288 71.3593 17.678 71.5087 16.7974C71.6771 15.8445 71.7614 14.8785 71.7605 13.9108V0.191406H77.3331V13.9108C77.348 15.68 77.1364 17.4438 76.7034 19.1592C76.3209 20.6667 75.6627 22.0903 74.7619 23.358C73.9037 24.572 72.7664 25.562 71.4457 26.2446C69.9504 26.9736 68.3022 27.3335 66.6393 27.2943C64.9324 27.343 63.2405 26.9641 61.7174 26.1921C60.3959 25.4963 59.2618 24.4916 58.4117 23.2635C57.531 21.9745 56.8975 20.5329 56.5437 19.0123C56.1397 17.3563 55.9388 15.6573 55.9455 13.9528V0.191406H61.518V13.9108C61.5107 14.9006 61.6021 15.8887 61.7909 16.8604C61.9486 17.7318 62.2463 18.5719 62.6724 19.3482C63.0502 20.0465 63.5901 20.6441 64.2465 21.0906C64.9616 21.5399 65.7955 21.7631 66.6393 21.7309V21.7309Z" fill="white"/>
<path d="M24.0564 38.3788H15.9022V59.7714H9.70003V38.3788H1.50391V32.9414H24.0564V38.3788Z" fill="#FFCA00"/>
<path d="M55.7881 59.768V32.9381H67.2375C68.4625 32.9232 69.674 33.1964 70.7741 33.7358C71.8179 34.2509 72.7517 34.9639 73.5236 35.8352C74.2946 36.6943 74.9091 37.682 75.3391 38.7533C75.7657 39.7784 75.9902 40.8762 76.0003 41.9864C76.0029 43.1483 75.793 44.3009 75.3811 45.3873C74.9745 46.4476 74.3848 47.4282 73.639 48.2845C72.8733 49.1792 71.9193 49.8935 70.8452 50.3762C69.7712 50.8589 68.6037 51.0981 67.4264 51.0766H61.9903V59.7365L55.7881 59.768ZM61.9903 45.7127H67.0486C67.4148 45.7111 67.7758 45.6251 68.1034 45.4612C68.4311 45.2974 68.7165 45.0602 68.9376 44.768C69.5246 43.9646 69.8072 42.9788 69.7351 41.9864C69.7477 41.4334 69.6624 40.8826 69.4833 40.3594C69.3449 39.9392 69.1197 39.5529 68.8221 39.2257C68.565 38.9325 68.241 38.7056 67.8776 38.5644C67.544 38.4296 67.188 38.3584 66.8282 38.3545H62.0008L61.9903 45.7127Z" fill="#FFCA00"/>
<path d="M80.9053 59.771V53.6094H85.8481V59.771H80.9053Z" fill="white"/>
<path d="M91.4922 59.8327V44.4653H98.2716C98.9963 44.4549 99.714 44.6092 100.37 44.9167C100.984 45.2081 101.536 45.6143 101.997 46.1133C102.442 46.6037 102.797 47.1687 103.047 47.7823C103.303 48.3794 103.435 49.0222 103.435 49.6718C103.434 50.3397 103.309 51.0016 103.067 51.6242C102.817 52.2374 102.462 52.8022 102.018 53.2932C101.573 53.7883 101.03 54.1851 100.423 54.4583C99.7647 54.7595 99.0477 54.9101 98.324 54.8992H95.1652V59.8327H91.4922ZM95.1652 51.7607H98.1561C98.3712 51.7597 98.5834 51.7113 98.7775 51.6187C98.9716 51.5262 99.1429 51.3918 99.279 51.2253C99.5925 50.7707 99.7406 50.2224 99.6988 49.6718C99.7077 49.3548 99.6616 49.0387 99.5624 48.7376C99.4748 48.4959 99.3392 48.2745 99.1636 48.0868C99.0138 47.915 98.8222 47.7848 98.6074 47.7089C98.4075 47.627 98.1937 47.5843 97.9777 47.5829H95.1652V51.7607Z" fill="white"/>
<path d="M105.419 59.8331V44.4657H112.576C113.301 44.4518 114.02 44.6063 114.675 44.9171C115.295 45.2081 115.854 45.6142 116.323 46.1137C116.768 46.604 117.123 47.169 117.372 47.7827C117.628 48.3797 117.76 49.0225 117.76 49.6721C117.764 50.5925 117.525 51.4975 117.068 52.2963C116.623 53.0805 115.964 53.7214 115.168 54.1438L118.663 59.8331H114.518L111.485 54.8681H109.144V59.8331H105.419ZM109.092 51.761H112.44C112.661 51.7583 112.879 51.7025 113.074 51.5984C113.269 51.4943 113.437 51.3449 113.563 51.1627C113.891 50.725 114.058 50.1873 114.035 49.6406C114.05 49.3642 114.011 49.0874 113.919 48.8261C113.827 48.5649 113.685 48.3245 113.5 48.1186C113.355 47.9494 113.176 47.8117 112.976 47.7142C112.776 47.6167 112.557 47.5614 112.335 47.5518H109.144L109.092 51.761Z" fill="white"/>
<path d="M127.352 60.0012C126.246 60.0122 125.15 59.783 124.141 59.3294C123.203 58.9072 122.358 58.3044 121.654 57.5555C120.971 56.8257 120.43 55.9749 120.059 55.0467C119.68 54.1239 119.484 53.1365 119.481 52.1391C119.481 51.1325 119.685 50.1363 120.08 49.2105C120.467 48.2855 121.031 47.4443 121.738 46.7332C122.478 45.9768 123.363 45.3778 124.341 44.9719C125.318 44.5661 126.367 44.3618 127.426 44.3714C128.535 44.3616 129.634 44.5907 130.647 45.0432C132.509 45.8958 133.965 47.4392 134.709 49.3469C135.082 50.2563 135.274 51.2296 135.276 52.2126C135.276 53.2191 135.072 54.2153 134.677 55.1412C134.289 56.061 133.734 56.9009 133.04 57.6184C132.32 58.3479 131.469 58.9355 130.532 59.3504C129.53 59.789 128.446 60.0107 127.352 60.0012V60.0012ZM123.217 52.1811C123.218 52.7691 123.31 53.3535 123.49 53.9131C123.658 54.4532 123.929 54.9558 124.288 55.3931C124.637 55.8363 125.082 56.1951 125.589 56.4428C126.157 56.7052 126.774 56.8412 127.399 56.8412C128.025 56.8412 128.642 56.7052 129.21 56.4428C129.711 56.1859 130.154 55.8286 130.511 55.3931C130.854 54.9465 131.114 54.4415 131.277 53.9026C131.454 53.3495 131.542 52.7721 131.54 52.1916C131.539 51.607 131.446 51.0263 131.267 50.4701C131.1 49.9272 130.825 49.4236 130.459 48.99C130.085 48.5376 129.612 48.1766 129.078 47.9346C128.543 47.6927 127.96 47.5761 127.373 47.5939C126.745 47.5808 126.123 47.7175 125.558 47.9928C125.057 48.2505 124.614 48.6076 124.256 49.0425C123.904 49.481 123.64 49.9836 123.48 50.5226C123.309 51.0588 123.22 51.6181 123.217 52.1811V52.1811Z" fill="white"/>
<path d="M50.8358 40.9381C50.2221 39.3236 49.3108 37.8388 48.1492 36.5609C46.9728 35.2563 45.545 34.2031 43.9515 33.4643C42.2484 32.6804 40.3898 32.2928 38.5154 32.3307C36.669 32.3159 34.8408 32.6952 33.1527 33.4433C31.5574 34.1589 30.1145 35.1745 28.9025 36.4349C26.4751 38.9823 25.1156 42.363 25.1035 45.8821C25.1165 49.3774 26.4253 52.7435 28.7766 55.3293C29.962 56.6211 31.3878 57.6693 32.9743 58.4153C34.6754 59.173 36.5168 59.5646 38.3789 59.5646C40.2411 59.5646 42.0824 59.173 43.7835 58.4153C46.9816 56.9673 49.4916 54.3325 50.7833 51.0675C51.4653 49.4527 51.8219 47.7191 51.8327 45.9661C51.8157 44.2427 51.4776 42.5375 50.8358 40.9381V40.9381ZM42.073 47.8345L42.944 52.9045L38.3894 50.5112L33.8349 52.9045L34.7059 47.8345L31.0224 44.2446L36.1121 43.4993L38.3894 38.8912L40.6667 43.4993L45.7565 44.2446L42.073 47.8345Z" fill="#FFCA00"/>
</g>
<defs>
<clipPath id="clip0_4032_10154">
<rect width="135.273" height="60" fill="white"/>
</clipPath>
</defs>
</svg>
