<svg width="528" height="322" viewBox="0 0 528 322" fill="none" xmlns="http://www.w3.org/2000/svg">
<path d="M330.679 215.529C331.123 215.529 331.51 215.475 331.84 215.367C332.17 215.253 332.443 215.094 332.659 214.89C332.881 214.68 333.046 214.428 333.154 214.134C333.262 213.834 333.316 213.501 333.316 213.135C333.316 212.787 333.262 212.472 333.154 212.19C333.046 211.908 332.884 211.668 332.668 211.47C332.452 211.272 332.179 211.122 331.849 211.02C331.519 210.912 331.129 210.858 330.679 210.858H328.87V215.529H330.679ZM330.679 208.986C331.549 208.986 332.302 209.088 332.938 209.292C333.574 209.496 334.099 209.781 334.513 210.147C334.927 210.513 335.233 210.951 335.431 211.461C335.635 211.971 335.737 212.529 335.737 213.135C335.737 213.765 335.632 214.344 335.422 214.872C335.212 215.394 334.897 215.844 334.477 216.222C334.057 216.6 333.529 216.894 332.893 217.104C332.263 217.314 331.525 217.419 330.679 217.419H328.87V222H326.449V208.986H330.679ZM340.907 212.622C341.591 212.622 342.212 212.733 342.77 212.955C343.334 213.177 343.814 213.492 344.21 213.9C344.612 214.308 344.921 214.806 345.137 215.394C345.353 215.982 345.461 216.639 345.461 217.365C345.461 218.097 345.353 218.757 345.137 219.345C344.921 219.933 344.612 220.434 344.21 220.848C343.814 221.262 343.334 221.58 342.77 221.802C342.212 222.024 341.591 222.135 340.907 222.135C340.217 222.135 339.59 222.024 339.026 221.802C338.462 221.58 337.979 221.262 337.577 220.848C337.181 220.434 336.872 219.933 336.65 219.345C336.434 218.757 336.326 218.097 336.326 217.365C336.326 216.639 336.434 215.982 336.65 215.394C336.872 214.806 337.181 214.308 337.577 213.9C337.979 213.492 338.462 213.177 339.026 212.955C339.59 212.733 340.217 212.622 340.907 212.622ZM340.907 220.425C341.675 220.425 342.242 220.167 342.608 219.651C342.98 219.135 343.166 218.379 343.166 217.383C343.166 216.387 342.98 215.628 342.608 215.106C342.242 214.584 341.675 214.323 340.907 214.323C340.127 214.323 339.548 214.587 339.17 215.115C338.798 215.637 338.612 216.393 338.612 217.383C338.612 218.373 338.798 219.129 339.17 219.651C339.548 220.167 340.127 220.425 340.907 220.425ZM353.772 214.719C353.706 214.803 353.64 214.869 353.574 214.917C353.514 214.965 353.424 214.989 353.304 214.989C353.19 214.989 353.079 214.956 352.971 214.89C352.863 214.818 352.734 214.74 352.584 214.656C352.434 214.566 352.254 214.488 352.044 214.422C351.84 214.35 351.585 214.314 351.279 214.314C350.889 214.314 350.547 214.386 350.253 214.53C349.959 214.668 349.713 214.869 349.515 215.133C349.323 215.397 349.179 215.718 349.083 216.096C348.987 216.468 348.939 216.891 348.939 217.365C348.939 217.857 348.99 218.295 349.092 218.679C349.2 219.063 349.353 219.387 349.551 219.651C349.749 219.909 349.989 220.107 350.271 220.245C350.553 220.377 350.871 220.443 351.225 220.443C351.579 220.443 351.864 220.401 352.08 220.317C352.302 220.227 352.488 220.131 352.638 220.029C352.788 219.921 352.917 219.825 353.025 219.741C353.139 219.651 353.265 219.606 353.403 219.606C353.583 219.606 353.718 219.675 353.808 219.813L354.447 220.623C354.201 220.911 353.934 221.154 353.646 221.352C353.358 221.544 353.058 221.7 352.746 221.82C352.44 221.934 352.122 222.015 351.792 222.063C351.468 222.111 351.144 222.135 350.82 222.135C350.25 222.135 349.713 222.03 349.209 221.82C348.705 221.604 348.264 221.292 347.886 220.884C347.508 220.476 347.208 219.978 346.986 219.39C346.77 218.796 346.662 218.121 346.662 217.365C346.662 216.687 346.758 216.06 346.95 215.484C347.148 214.902 347.436 214.401 347.814 213.981C348.192 213.555 348.66 213.222 349.218 212.982C349.776 212.742 350.418 212.622 351.144 212.622C351.834 212.622 352.437 212.733 352.953 212.955C353.475 213.177 353.943 213.495 354.357 213.909L353.772 214.719ZM363.76 214.413H360.466V222H358.243V214.413H354.958V212.766H363.76V214.413ZM377.492 222H375.269V214.413H371.669V222H369.446V212.766H377.492V222ZM383.78 212.622C384.464 212.622 385.085 212.733 385.643 212.955C386.207 213.177 386.687 213.492 387.083 213.9C387.485 214.308 387.794 214.806 388.01 215.394C388.226 215.982 388.334 216.639 388.334 217.365C388.334 218.097 388.226 218.757 388.01 219.345C387.794 219.933 387.485 220.434 387.083 220.848C386.687 221.262 386.207 221.58 385.643 221.802C385.085 222.024 384.464 222.135 383.78 222.135C383.09 222.135 382.463 222.024 381.899 221.802C381.335 221.58 380.852 221.262 380.45 220.848C380.054 220.434 379.745 219.933 379.523 219.345C379.307 218.757 379.199 218.097 379.199 217.365C379.199 216.639 379.307 215.982 379.523 215.394C379.745 214.806 380.054 214.308 380.45 213.9C380.852 213.492 381.335 213.177 381.899 212.955C382.463 212.733 383.09 212.622 383.78 212.622ZM383.78 220.425C384.548 220.425 385.115 220.167 385.481 219.651C385.853 219.135 386.039 218.379 386.039 217.383C386.039 216.387 385.853 215.628 385.481 215.106C385.115 214.584 384.548 214.323 383.78 214.323C383 214.323 382.421 214.587 382.043 215.115C381.671 215.637 381.485 216.393 381.485 217.383C381.485 218.373 381.671 219.129 382.043 219.651C382.421 220.167 383 220.425 383.78 220.425ZM389.314 213.765C389.662 213.429 390.094 213.156 390.61 212.946C391.126 212.73 391.744 212.622 392.464 212.622C393.034 212.622 393.541 212.691 393.985 212.829C394.429 212.961 394.801 213.144 395.101 213.378C395.407 213.606 395.638 213.87 395.794 214.17C395.956 214.464 396.037 214.773 396.037 215.097C396.037 215.271 396.01 215.454 395.956 215.646C395.908 215.832 395.824 216.015 395.704 216.195C395.59 216.375 395.437 216.543 395.245 216.699C395.053 216.849 394.816 216.978 394.534 217.086C395.038 217.278 395.443 217.56 395.749 217.932C396.061 218.304 396.217 218.763 396.217 219.309C396.217 219.759 396.112 220.158 395.902 220.506C395.698 220.854 395.425 221.151 395.083 221.397C394.741 221.637 394.348 221.82 393.904 221.946C393.466 222.072 393.013 222.135 392.545 222.135C392.281 222.135 391.996 222.111 391.69 222.063C391.39 222.015 391.087 221.934 390.781 221.82C390.475 221.7 390.175 221.544 389.881 221.352C389.587 221.154 389.32 220.911 389.08 220.623L389.719 219.813C389.809 219.675 389.944 219.606 390.124 219.606C390.262 219.606 390.394 219.651 390.52 219.741C390.646 219.825 390.79 219.921 390.952 220.029C391.12 220.131 391.318 220.227 391.546 220.317C391.774 220.401 392.059 220.443 392.401 220.443C392.959 220.443 393.382 220.317 393.67 220.065C393.958 219.813 394.102 219.498 394.102 219.12C394.102 218.748 393.952 218.457 393.652 218.247C393.358 218.037 392.878 217.932 392.212 217.932H391.168V216.483H392.212C392.794 216.483 393.241 216.381 393.553 216.177C393.865 215.973 394.021 215.703 394.021 215.367C394.021 215.061 393.883 214.809 393.607 214.611C393.337 214.413 392.935 214.314 392.401 214.314C392.083 214.314 391.813 214.347 391.591 214.413C391.369 214.479 391.177 214.551 391.015 214.629C390.859 214.701 390.727 214.77 390.619 214.836C390.511 214.902 390.409 214.935 390.313 214.935C390.211 214.935 390.124 214.917 390.052 214.881C389.98 214.839 389.902 214.752 389.818 214.62L389.314 213.765ZM406.255 212.766V222H404.032V216.609C404.032 216.471 404.038 216.321 404.05 216.159C404.068 215.991 404.089 215.823 404.113 215.655C403.993 215.931 403.861 216.174 403.717 216.384C403.705 216.396 403.645 216.48 403.537 216.636C403.429 216.786 403.288 216.981 403.114 217.221C402.946 217.461 402.754 217.734 402.538 218.04C402.322 218.34 402.103 218.646 401.881 218.958C401.359 219.696 400.768 220.53 400.108 221.46C400.024 221.586 399.913 221.709 399.775 221.829C399.643 221.949 399.49 222.009 399.316 222.009H397.957V212.775H400.18V218.166C400.18 218.304 400.171 218.457 400.153 218.625C400.141 218.787 400.123 218.952 400.099 219.12C400.231 218.826 400.363 218.583 400.495 218.391C400.501 218.379 400.558 218.298 400.666 218.148C400.774 217.998 400.912 217.803 401.08 217.563C401.254 217.323 401.449 217.053 401.665 216.753C401.881 216.447 402.1 216.135 402.322 215.817C402.844 215.079 403.438 214.245 404.104 213.315C404.188 213.183 404.299 213.06 404.437 212.946C404.575 212.826 404.731 212.766 404.905 212.766H406.255ZM418.199 220.353V224.43C418.199 224.634 418.139 224.796 418.019 224.916C417.899 225.036 417.746 225.096 417.56 225.096H416.174V222H408.452V212.766H410.675V220.353H414.275V212.766H416.498V220.353H418.199ZM427.894 212.766V222H425.671V216.609C425.671 216.471 425.677 216.321 425.689 216.159C425.707 215.991 425.728 215.823 425.752 215.655C425.632 215.931 425.5 216.174 425.356 216.384C425.344 216.396 425.284 216.48 425.176 216.636C425.068 216.786 424.927 216.981 424.753 217.221C424.585 217.461 424.393 217.734 424.177 218.04C423.961 218.34 423.742 218.646 423.52 218.958C422.998 219.696 422.407 220.53 421.747 221.46C421.663 221.586 421.552 221.709 421.414 221.829C421.282 221.949 421.129 222.009 420.955 222.009H419.596V212.775H421.819V218.166C421.819 218.304 421.81 218.457 421.792 218.625C421.78 218.787 421.762 218.952 421.738 219.12C421.87 218.826 422.002 218.583 422.134 218.391C422.14 218.379 422.197 218.298 422.305 218.148C422.413 217.998 422.551 217.803 422.719 217.563C422.893 217.323 423.088 217.053 423.304 216.753C423.52 216.447 423.739 216.135 423.961 215.817C424.483 215.079 425.077 214.245 425.743 213.315C425.827 213.183 425.938 213.06 426.076 212.946C426.214 212.826 426.37 212.766 426.544 212.766H427.894ZM438.388 212.766V222H436.165V216.609C436.165 216.471 436.171 216.321 436.183 216.159C436.201 215.991 436.222 215.823 436.246 215.655C436.126 215.931 435.994 216.174 435.85 216.384C435.838 216.396 435.778 216.48 435.67 216.636C435.562 216.786 435.421 216.981 435.247 217.221C435.079 217.461 434.887 217.734 434.671 218.04C434.455 218.34 434.236 218.646 434.014 218.958C433.492 219.696 432.901 220.53 432.241 221.46C432.157 221.586 432.046 221.709 431.908 221.829C431.776 221.949 431.623 222.009 431.449 222.009H430.09V212.775H432.313V218.166C432.313 218.304 432.304 218.457 432.286 218.625C432.274 218.787 432.256 218.952 432.232 219.12C432.364 218.826 432.496 218.583 432.628 218.391C432.634 218.379 432.691 218.298 432.799 218.148C432.907 217.998 433.045 217.803 433.213 217.563C433.387 217.323 433.582 217.053 433.798 216.753C434.014 216.447 434.233 216.135 434.455 215.817C434.977 215.079 435.571 214.245 436.237 213.315C436.321 213.183 436.432 213.06 436.57 212.946C436.708 212.826 436.864 212.766 437.038 212.766H438.388ZM434.365 210.426C434.587 210.426 434.773 210.402 434.923 210.354C435.073 210.306 435.193 210.228 435.283 210.12C435.373 210.006 435.436 209.856 435.472 209.67C435.508 209.484 435.526 209.256 435.526 208.986H436.84C436.996 208.986 437.11 209.052 437.182 209.184C437.26 209.31 437.299 209.451 437.299 209.607C437.299 209.913 437.23 210.192 437.092 210.444C436.954 210.69 436.756 210.9 436.498 211.074C436.24 211.242 435.931 211.374 435.571 211.47C435.211 211.56 434.809 211.605 434.365 211.605C433.921 211.605 433.519 211.56 433.159 211.47C432.799 211.374 432.49 211.242 432.232 211.074C431.974 210.9 431.776 210.69 431.638 210.444C431.5 210.192 431.431 209.913 431.431 209.607C431.431 209.451 431.467 209.31 431.539 209.184C431.617 209.052 431.734 208.986 431.89 208.986H433.204C433.204 209.256 433.222 209.484 433.258 209.67C433.294 209.856 433.357 210.006 433.447 210.12C433.537 210.228 433.654 210.306 433.798 210.354C433.948 210.402 434.137 210.426 434.365 210.426Z" fill="#121212"/>
<path d="M330.679 258.529C331.123 258.529 331.51 258.475 331.84 258.367C332.17 258.253 332.443 258.094 332.659 257.89C332.881 257.68 333.046 257.428 333.154 257.134C333.262 256.834 333.316 256.501 333.316 256.135C333.316 255.787 333.262 255.472 333.154 255.19C333.046 254.908 332.884 254.668 332.668 254.47C332.452 254.272 332.179 254.122 331.849 254.02C331.519 253.912 331.129 253.858 330.679 253.858H328.87V258.529H330.679ZM330.679 251.986C331.549 251.986 332.302 252.088 332.938 252.292C333.574 252.496 334.099 252.781 334.513 253.147C334.927 253.513 335.233 253.951 335.431 254.461C335.635 254.971 335.737 255.529 335.737 256.135C335.737 256.765 335.632 257.344 335.422 257.872C335.212 258.394 334.897 258.844 334.477 259.222C334.057 259.6 333.529 259.894 332.893 260.104C332.263 260.314 331.525 260.419 330.679 260.419H328.87V265H326.449V251.986H330.679ZM340.907 255.622C341.591 255.622 342.212 255.733 342.77 255.955C343.334 256.177 343.814 256.492 344.21 256.9C344.612 257.308 344.921 257.806 345.137 258.394C345.353 258.982 345.461 259.639 345.461 260.365C345.461 261.097 345.353 261.757 345.137 262.345C344.921 262.933 344.612 263.434 344.21 263.848C343.814 264.262 343.334 264.58 342.77 264.802C342.212 265.024 341.591 265.135 340.907 265.135C340.217 265.135 339.59 265.024 339.026 264.802C338.462 264.58 337.979 264.262 337.577 263.848C337.181 263.434 336.872 262.933 336.65 262.345C336.434 261.757 336.326 261.097 336.326 260.365C336.326 259.639 336.434 258.982 336.65 258.394C336.872 257.806 337.181 257.308 337.577 256.9C337.979 256.492 338.462 256.177 339.026 255.955C339.59 255.733 340.217 255.622 340.907 255.622ZM340.907 263.425C341.675 263.425 342.242 263.167 342.608 262.651C342.98 262.135 343.166 261.379 343.166 260.383C343.166 259.387 342.98 258.628 342.608 258.106C342.242 257.584 341.675 257.323 340.907 257.323C340.127 257.323 339.548 257.587 339.17 258.115C338.798 258.637 338.612 259.393 338.612 260.383C338.612 261.373 338.798 262.129 339.17 262.651C339.548 263.167 340.127 263.425 340.907 263.425ZM353.772 257.719C353.706 257.803 353.64 257.869 353.574 257.917C353.514 257.965 353.424 257.989 353.304 257.989C353.19 257.989 353.079 257.956 352.971 257.89C352.863 257.818 352.734 257.74 352.584 257.656C352.434 257.566 352.254 257.488 352.044 257.422C351.84 257.35 351.585 257.314 351.279 257.314C350.889 257.314 350.547 257.386 350.253 257.53C349.959 257.668 349.713 257.869 349.515 258.133C349.323 258.397 349.179 258.718 349.083 259.096C348.987 259.468 348.939 259.891 348.939 260.365C348.939 260.857 348.99 261.295 349.092 261.679C349.2 262.063 349.353 262.387 349.551 262.651C349.749 262.909 349.989 263.107 350.271 263.245C350.553 263.377 350.871 263.443 351.225 263.443C351.579 263.443 351.864 263.401 352.08 263.317C352.302 263.227 352.488 263.131 352.638 263.029C352.788 262.921 352.917 262.825 353.025 262.741C353.139 262.651 353.265 262.606 353.403 262.606C353.583 262.606 353.718 262.675 353.808 262.813L354.447 263.623C354.201 263.911 353.934 264.154 353.646 264.352C353.358 264.544 353.058 264.7 352.746 264.82C352.44 264.934 352.122 265.015 351.792 265.063C351.468 265.111 351.144 265.135 350.82 265.135C350.25 265.135 349.713 265.03 349.209 264.82C348.705 264.604 348.264 264.292 347.886 263.884C347.508 263.476 347.208 262.978 346.986 262.39C346.77 261.796 346.662 261.121 346.662 260.365C346.662 259.687 346.758 259.06 346.95 258.484C347.148 257.902 347.436 257.401 347.814 256.981C348.192 256.555 348.66 256.222 349.218 255.982C349.776 255.742 350.418 255.622 351.144 255.622C351.834 255.622 352.437 255.733 352.953 255.955C353.475 256.177 353.943 256.495 354.357 256.909L353.772 257.719ZM363.76 257.413H360.466V265H358.243V257.413H354.958V255.766H363.76V257.413ZM377.492 265H375.269V257.413H371.669V265H369.446V255.766H377.492V265ZM383.78 255.622C384.464 255.622 385.085 255.733 385.643 255.955C386.207 256.177 386.687 256.492 387.083 256.9C387.485 257.308 387.794 257.806 388.01 258.394C388.226 258.982 388.334 259.639 388.334 260.365C388.334 261.097 388.226 261.757 388.01 262.345C387.794 262.933 387.485 263.434 387.083 263.848C386.687 264.262 386.207 264.58 385.643 264.802C385.085 265.024 384.464 265.135 383.78 265.135C383.09 265.135 382.463 265.024 381.899 264.802C381.335 264.58 380.852 264.262 380.45 263.848C380.054 263.434 379.745 262.933 379.523 262.345C379.307 261.757 379.199 261.097 379.199 260.365C379.199 259.639 379.307 258.982 379.523 258.394C379.745 257.806 380.054 257.308 380.45 256.9C380.852 256.492 381.335 256.177 381.899 255.955C382.463 255.733 383.09 255.622 383.78 255.622ZM383.78 263.425C384.548 263.425 385.115 263.167 385.481 262.651C385.853 262.135 386.039 261.379 386.039 260.383C386.039 259.387 385.853 258.628 385.481 258.106C385.115 257.584 384.548 257.323 383.78 257.323C383 257.323 382.421 257.587 382.043 258.115C381.671 258.637 381.485 259.393 381.485 260.383C381.485 261.373 381.671 262.129 382.043 262.651C382.421 263.167 383 263.425 383.78 263.425ZM396.645 257.719C396.579 257.803 396.513 257.869 396.447 257.917C396.387 257.965 396.297 257.989 396.177 257.989C396.063 257.989 395.952 257.956 395.844 257.89C395.736 257.818 395.607 257.74 395.457 257.656C395.307 257.566 395.127 257.488 394.917 257.422C394.713 257.35 394.458 257.314 394.152 257.314C393.762 257.314 393.42 257.386 393.126 257.53C392.832 257.668 392.586 257.869 392.388 258.133C392.196 258.397 392.052 258.718 391.956 259.096C391.86 259.468 391.812 259.891 391.812 260.365C391.812 260.857 391.863 261.295 391.965 261.679C392.073 262.063 392.226 262.387 392.424 262.651C392.622 262.909 392.862 263.107 393.144 263.245C393.426 263.377 393.744 263.443 394.098 263.443C394.452 263.443 394.737 263.401 394.953 263.317C395.175 263.227 395.361 263.131 395.511 263.029C395.661 262.921 395.79 262.825 395.898 262.741C396.012 262.651 396.138 262.606 396.276 262.606C396.456 262.606 396.591 262.675 396.681 262.813L397.32 263.623C397.074 263.911 396.807 264.154 396.519 264.352C396.231 264.544 395.931 264.7 395.619 264.82C395.313 264.934 394.995 265.015 394.665 265.063C394.341 265.111 394.017 265.135 393.693 265.135C393.123 265.135 392.586 265.03 392.082 264.82C391.578 264.604 391.137 264.292 390.759 263.884C390.381 263.476 390.081 262.978 389.859 262.39C389.643 261.796 389.535 261.121 389.535 260.365C389.535 259.687 389.631 259.06 389.823 258.484C390.021 257.902 390.309 257.401 390.687 256.981C391.065 256.555 391.533 256.222 392.091 255.982C392.649 255.742 393.291 255.622 394.017 255.622C394.707 255.622 395.31 255.733 395.826 255.955C396.348 256.177 396.816 256.495 397.23 256.909L396.645 257.719ZM404.504 259.321C404.504 259.033 404.462 258.763 404.378 258.511C404.3 258.253 404.18 258.028 404.018 257.836C403.856 257.644 403.649 257.494 403.397 257.386C403.151 257.272 402.863 257.215 402.533 257.215C401.891 257.215 401.384 257.398 401.012 257.764C400.646 258.13 400.412 258.649 400.31 259.321H404.504ZM400.265 260.662C400.301 261.136 400.385 261.547 400.517 261.895C400.649 262.237 400.823 262.522 401.039 262.75C401.255 262.972 401.51 263.14 401.804 263.254C402.104 263.362 402.434 263.416 402.794 263.416C403.154 263.416 403.463 263.374 403.721 263.29C403.985 263.206 404.213 263.113 404.405 263.011C404.603 262.909 404.774 262.816 404.918 262.732C405.068 262.648 405.212 262.606 405.35 262.606C405.536 262.606 405.674 262.675 405.764 262.813L406.403 263.623C406.157 263.911 405.881 264.154 405.575 264.352C405.269 264.544 404.948 264.7 404.612 264.82C404.282 264.934 403.943 265.015 403.595 265.063C403.253 265.111 402.92 265.135 402.596 265.135C401.954 265.135 401.357 265.03 400.805 264.82C400.253 264.604 399.773 264.289 399.365 263.875C398.957 263.455 398.636 262.939 398.402 262.327C398.168 261.709 398.051 260.995 398.051 260.185C398.051 259.555 398.153 258.964 398.357 258.412C398.561 257.854 398.852 257.371 399.23 256.963C399.614 256.549 400.079 256.222 400.625 255.982C401.177 255.742 401.798 255.622 402.488 255.622C403.07 255.622 403.607 255.715 404.099 255.901C404.591 256.087 405.014 256.36 405.368 256.72C405.722 257.074 405.998 257.512 406.196 258.034C406.4 258.55 406.502 259.141 406.502 259.807C406.502 260.143 406.466 260.371 406.394 260.491C406.322 260.605 406.184 260.662 405.98 260.662H400.265ZM422.633 263.353V267.43C422.633 267.634 422.573 267.796 422.453 267.916C422.339 268.036 422.189 268.096 422.003 268.096H420.617V265H408.17V255.766H410.393V263.353H413.444V255.766H415.667V263.353H418.718V255.766H420.941V263.353H422.633ZM428.921 261.058C428.279 261.088 427.739 261.145 427.301 261.229C426.863 261.307 426.512 261.409 426.248 261.535C425.984 261.661 425.795 261.808 425.681 261.976C425.567 262.144 425.51 262.327 425.51 262.525C425.51 262.915 425.624 263.194 425.852 263.362C426.086 263.53 426.389 263.614 426.761 263.614C427.217 263.614 427.61 263.533 427.94 263.371C428.276 263.203 428.603 262.951 428.921 262.615V261.058ZM423.827 257.053C424.889 256.081 426.167 255.595 427.661 255.595C428.201 255.595 428.684 255.685 429.11 255.865C429.536 256.039 429.896 256.285 430.19 256.603C430.484 256.915 430.706 257.29 430.856 257.728C431.012 258.166 431.09 258.646 431.09 259.168V265H430.082C429.872 265 429.71 264.97 429.596 264.91C429.482 264.844 429.392 264.715 429.326 264.523L429.128 263.857C428.894 264.067 428.666 264.253 428.444 264.415C428.222 264.571 427.991 264.703 427.751 264.811C427.511 264.919 427.253 265 426.977 265.054C426.707 265.114 426.407 265.144 426.077 265.144C425.687 265.144 425.327 265.093 424.997 264.991C424.667 264.883 424.382 264.724 424.142 264.514C423.902 264.304 423.716 264.043 423.584 263.731C423.452 263.419 423.386 263.056 423.386 262.642C423.386 262.408 423.425 262.177 423.503 261.949C423.581 261.715 423.707 261.493 423.881 261.283C424.061 261.073 424.292 260.875 424.574 260.689C424.856 260.503 425.201 260.341 425.609 260.203C426.023 260.065 426.503 259.954 427.049 259.87C427.595 259.78 428.219 259.726 428.921 259.708V259.168C428.921 258.55 428.789 258.094 428.525 257.8C428.261 257.5 427.88 257.35 427.382 257.35C427.022 257.35 426.722 257.392 426.482 257.476C426.248 257.56 426.041 257.656 425.861 257.764C425.681 257.866 425.516 257.959 425.366 258.043C425.222 258.127 425.06 258.169 424.88 258.169C424.724 258.169 424.592 258.13 424.484 258.052C424.376 257.968 424.289 257.872 424.223 257.764L423.827 257.053ZM439.133 259.321C439.133 259.033 439.091 258.763 439.007 258.511C438.929 258.253 438.809 258.028 438.647 257.836C438.485 257.644 438.278 257.494 438.026 257.386C437.78 257.272 437.492 257.215 437.162 257.215C436.52 257.215 436.013 257.398 435.641 257.764C435.275 258.13 435.041 258.649 434.939 259.321H439.133ZM434.894 260.662C434.93 261.136 435.014 261.547 435.146 261.895C435.278 262.237 435.452 262.522 435.668 262.75C435.884 262.972 436.139 263.14 436.433 263.254C436.733 263.362 437.063 263.416 437.423 263.416C437.783 263.416 438.092 263.374 438.35 263.29C438.614 263.206 438.842 263.113 439.034 263.011C439.232 262.909 439.403 262.816 439.547 262.732C439.697 262.648 439.841 262.606 439.979 262.606C440.165 262.606 440.303 262.675 440.393 262.813L441.032 263.623C440.786 263.911 440.51 264.154 440.204 264.352C439.898 264.544 439.577 264.7 439.241 264.82C438.911 264.934 438.572 265.015 438.224 265.063C437.882 265.111 437.549 265.135 437.225 265.135C436.583 265.135 435.986 265.03 435.434 264.82C434.882 264.604 434.402 264.289 433.994 263.875C433.586 263.455 433.265 262.939 433.031 262.327C432.797 261.709 432.68 260.995 432.68 260.185C432.68 259.555 432.782 258.964 432.986 258.412C433.19 257.854 433.481 257.371 433.859 256.963C434.243 256.549 434.708 256.222 435.254 255.982C435.806 255.742 436.427 255.622 437.117 255.622C437.699 255.622 438.236 255.715 438.728 255.901C439.22 256.087 439.643 256.36 439.997 256.72C440.351 257.074 440.627 257.512 440.825 258.034C441.029 258.55 441.131 259.141 441.131 259.807C441.131 260.143 441.095 260.371 441.023 260.491C440.951 260.605 440.813 260.662 440.609 260.662H434.894ZM453.5 255.748V265H451.493V259.852C451.493 259.642 451.502 259.405 451.52 259.141C451.544 258.877 451.58 258.631 451.628 258.403L448.91 263.389C448.778 263.647 448.568 263.776 448.28 263.776H448.046C447.758 263.776 447.548 263.647 447.416 263.389L444.662 258.376C444.704 258.604 444.737 258.853 444.761 259.123C444.791 259.393 444.806 259.636 444.806 259.852V265H442.799V255.748H444.635C444.791 255.748 444.944 255.781 445.094 255.847C445.25 255.913 445.379 256.045 445.481 256.243L447.659 260.131C447.755 260.311 447.845 260.503 447.929 260.707C448.013 260.905 448.091 261.106 448.163 261.31C448.235 261.106 448.31 260.902 448.388 260.698C448.472 260.494 448.562 260.305 448.658 260.131L450.818 256.243C450.926 256.039 451.055 255.907 451.205 255.847C451.355 255.781 451.508 255.748 451.664 255.748H453.5ZM459.788 255.622C460.472 255.622 461.093 255.733 461.651 255.955C462.215 256.177 462.695 256.492 463.091 256.9C463.493 257.308 463.802 257.806 464.018 258.394C464.234 258.982 464.342 259.639 464.342 260.365C464.342 261.097 464.234 261.757 464.018 262.345C463.802 262.933 463.493 263.434 463.091 263.848C462.695 264.262 462.215 264.58 461.651 264.802C461.093 265.024 460.472 265.135 459.788 265.135C459.098 265.135 458.471 265.024 457.907 264.802C457.343 264.58 456.86 264.262 456.458 263.848C456.062 263.434 455.753 262.933 455.531 262.345C455.315 261.757 455.207 261.097 455.207 260.365C455.207 259.639 455.315 258.982 455.531 258.394C455.753 257.806 456.062 257.308 456.458 256.9C456.86 256.492 457.343 256.177 457.907 255.955C458.471 255.733 459.098 255.622 459.788 255.622ZM459.788 263.425C460.556 263.425 461.123 263.167 461.489 262.651C461.861 262.135 462.047 261.379 462.047 260.383C462.047 259.387 461.861 258.628 461.489 258.106C461.123 257.584 460.556 257.323 459.788 257.323C459.008 257.323 458.429 257.587 458.051 258.115C457.679 258.637 457.493 259.393 457.493 260.383C457.493 261.373 457.679 262.129 458.051 262.651C458.429 263.167 459.008 263.425 459.788 263.425ZM472.652 257.719C472.586 257.803 472.52 257.869 472.454 257.917C472.394 257.965 472.304 257.989 472.184 257.989C472.07 257.989 471.959 257.956 471.851 257.89C471.743 257.818 471.614 257.74 471.464 257.656C471.314 257.566 471.134 257.488 470.924 257.422C470.72 257.35 470.465 257.314 470.159 257.314C469.769 257.314 469.427 257.386 469.133 257.53C468.839 257.668 468.593 257.869 468.395 258.133C468.203 258.397 468.059 258.718 467.963 259.096C467.867 259.468 467.819 259.891 467.819 260.365C467.819 260.857 467.87 261.295 467.972 261.679C468.08 262.063 468.233 262.387 468.431 262.651C468.629 262.909 468.869 263.107 469.151 263.245C469.433 263.377 469.751 263.443 470.105 263.443C470.459 263.443 470.744 263.401 470.96 263.317C471.182 263.227 471.368 263.131 471.518 263.029C471.668 262.921 471.797 262.825 471.905 262.741C472.019 262.651 472.145 262.606 472.283 262.606C472.463 262.606 472.598 262.675 472.688 262.813L473.327 263.623C473.081 263.911 472.814 264.154 472.526 264.352C472.238 264.544 471.938 264.7 471.626 264.82C471.32 264.934 471.002 265.015 470.672 265.063C470.348 265.111 470.024 265.135 469.7 265.135C469.13 265.135 468.593 265.03 468.089 264.82C467.585 264.604 467.144 264.292 466.766 263.884C466.388 263.476 466.088 262.978 465.866 262.39C465.65 261.796 465.542 261.121 465.542 260.365C465.542 259.687 465.638 259.06 465.83 258.484C466.028 257.902 466.316 257.401 466.694 256.981C467.072 256.555 467.54 256.222 468.098 255.982C468.656 255.742 469.298 255.622 470.024 255.622C470.714 255.622 471.317 255.733 471.833 255.955C472.355 256.177 472.823 256.495 473.237 256.909L472.652 257.719ZM482.641 257.413H479.347V265H477.124V257.413H473.839V255.766H482.641V257.413ZM492.248 255.766V265H490.025V259.609C490.025 259.471 490.031 259.321 490.043 259.159C490.061 258.991 490.082 258.823 490.106 258.655C489.986 258.931 489.854 259.174 489.71 259.384C489.698 259.396 489.638 259.48 489.53 259.636C489.422 259.786 489.281 259.981 489.107 260.221C488.939 260.461 488.747 260.734 488.531 261.04C488.315 261.34 488.096 261.646 487.874 261.958C487.352 262.696 486.761 263.53 486.101 264.46C486.017 264.586 485.906 264.709 485.768 264.829C485.636 264.949 485.483 265.009 485.309 265.009H483.95V255.775H486.173V261.166C486.173 261.304 486.164 261.457 486.146 261.625C486.134 261.787 486.116 261.952 486.092 262.12C486.224 261.826 486.356 261.583 486.488 261.391C486.494 261.379 486.551 261.298 486.659 261.148C486.767 260.998 486.905 260.803 487.073 260.563C487.247 260.323 487.442 260.053 487.658 259.753C487.874 259.447 488.093 259.135 488.315 258.817C488.837 258.079 489.431 257.245 490.097 256.315C490.181 256.183 490.292 256.06 490.43 255.946C490.568 255.826 490.724 255.766 490.898 255.766H492.248Z" fill="#121212"/>
<path d="M330.679 301.529C331.123 301.529 331.51 301.475 331.84 301.367C332.17 301.253 332.443 301.094 332.659 300.89C332.881 300.68 333.046 300.428 333.154 300.134C333.262 299.834 333.316 299.501 333.316 299.135C333.316 298.787 333.262 298.472 333.154 298.19C333.046 297.908 332.884 297.668 332.668 297.47C332.452 297.272 332.179 297.122 331.849 297.02C331.519 296.912 331.129 296.858 330.679 296.858H328.87V301.529H330.679ZM330.679 294.986C331.549 294.986 332.302 295.088 332.938 295.292C333.574 295.496 334.099 295.781 334.513 296.147C334.927 296.513 335.233 296.951 335.431 297.461C335.635 297.971 335.737 298.529 335.737 299.135C335.737 299.765 335.632 300.344 335.422 300.872C335.212 301.394 334.897 301.844 334.477 302.222C334.057 302.6 333.529 302.894 332.893 303.104C332.263 303.314 331.525 303.419 330.679 303.419H328.87V308H326.449V294.986H330.679ZM340.907 298.622C341.591 298.622 342.212 298.733 342.77 298.955C343.334 299.177 343.814 299.492 344.21 299.9C344.612 300.308 344.921 300.806 345.137 301.394C345.353 301.982 345.461 302.639 345.461 303.365C345.461 304.097 345.353 304.757 345.137 305.345C344.921 305.933 344.612 306.434 344.21 306.848C343.814 307.262 343.334 307.58 342.77 307.802C342.212 308.024 341.591 308.135 340.907 308.135C340.217 308.135 339.59 308.024 339.026 307.802C338.462 307.58 337.979 307.262 337.577 306.848C337.181 306.434 336.872 305.933 336.65 305.345C336.434 304.757 336.326 304.097 336.326 303.365C336.326 302.639 336.434 301.982 336.65 301.394C336.872 300.806 337.181 300.308 337.577 299.9C337.979 299.492 338.462 299.177 339.026 298.955C339.59 298.733 340.217 298.622 340.907 298.622ZM340.907 306.425C341.675 306.425 342.242 306.167 342.608 305.651C342.98 305.135 343.166 304.379 343.166 303.383C343.166 302.387 342.98 301.628 342.608 301.106C342.242 300.584 341.675 300.323 340.907 300.323C340.127 300.323 339.548 300.587 339.17 301.115C338.798 301.637 338.612 302.393 338.612 303.383C338.612 304.373 338.798 305.129 339.17 305.651C339.548 306.167 340.127 306.425 340.907 306.425ZM353.772 300.719C353.706 300.803 353.64 300.869 353.574 300.917C353.514 300.965 353.424 300.989 353.304 300.989C353.19 300.989 353.079 300.956 352.971 300.89C352.863 300.818 352.734 300.74 352.584 300.656C352.434 300.566 352.254 300.488 352.044 300.422C351.84 300.35 351.585 300.314 351.279 300.314C350.889 300.314 350.547 300.386 350.253 300.53C349.959 300.668 349.713 300.869 349.515 301.133C349.323 301.397 349.179 301.718 349.083 302.096C348.987 302.468 348.939 302.891 348.939 303.365C348.939 303.857 348.99 304.295 349.092 304.679C349.2 305.063 349.353 305.387 349.551 305.651C349.749 305.909 349.989 306.107 350.271 306.245C350.553 306.377 350.871 306.443 351.225 306.443C351.579 306.443 351.864 306.401 352.08 306.317C352.302 306.227 352.488 306.131 352.638 306.029C352.788 305.921 352.917 305.825 353.025 305.741C353.139 305.651 353.265 305.606 353.403 305.606C353.583 305.606 353.718 305.675 353.808 305.813L354.447 306.623C354.201 306.911 353.934 307.154 353.646 307.352C353.358 307.544 353.058 307.7 352.746 307.82C352.44 307.934 352.122 308.015 351.792 308.063C351.468 308.111 351.144 308.135 350.82 308.135C350.25 308.135 349.713 308.03 349.209 307.82C348.705 307.604 348.264 307.292 347.886 306.884C347.508 306.476 347.208 305.978 346.986 305.39C346.77 304.796 346.662 304.121 346.662 303.365C346.662 302.687 346.758 302.06 346.95 301.484C347.148 300.902 347.436 300.401 347.814 299.981C348.192 299.555 348.66 299.222 349.218 298.982C349.776 298.742 350.418 298.622 351.144 298.622C351.834 298.622 352.437 298.733 352.953 298.955C353.475 299.177 353.943 299.495 354.357 299.909L353.772 300.719ZM363.76 300.413H360.466V308H358.243V300.413H354.958V298.766H363.76V300.413ZM377.492 308H375.269V300.413H371.669V308H369.446V298.766H377.492V308ZM381.917 305.606C382.169 305.912 382.442 306.128 382.736 306.254C383.036 306.38 383.36 306.443 383.708 306.443C384.044 306.443 384.347 306.38 384.617 306.254C384.887 306.128 385.115 305.936 385.301 305.678C385.493 305.42 385.64 305.096 385.742 304.706C385.844 304.31 385.895 303.845 385.895 303.311C385.895 302.771 385.85 302.315 385.76 301.943C385.676 301.565 385.553 301.259 385.391 301.025C385.229 300.791 385.031 300.62 384.797 300.512C384.569 300.404 384.308 300.35 384.014 300.35C383.552 300.35 383.159 300.449 382.835 300.647C382.511 300.839 382.205 301.112 381.917 301.466V305.606ZM381.8 300.026C382.178 299.6 382.607 299.255 383.087 298.991C383.567 298.727 384.131 298.595 384.779 298.595C385.283 298.595 385.742 298.7 386.156 298.91C386.576 299.12 386.936 299.426 387.236 299.828C387.542 300.224 387.776 300.716 387.938 301.304C388.106 301.886 388.19 302.555 388.19 303.311C388.19 304.001 388.097 304.64 387.911 305.228C387.725 305.816 387.458 306.326 387.11 306.758C386.768 307.19 386.351 307.529 385.859 307.775C385.373 308.015 384.827 308.135 384.221 308.135C383.705 308.135 383.264 308.057 382.898 307.901C382.532 307.739 382.205 307.517 381.917 307.235V311.015H379.694V298.766H381.053C381.341 298.766 381.53 298.901 381.62 299.171L381.8 300.026ZM393.993 298.622C394.677 298.622 395.298 298.733 395.856 298.955C396.42 299.177 396.9 299.492 397.296 299.9C397.698 300.308 398.007 300.806 398.223 301.394C398.439 301.982 398.547 302.639 398.547 303.365C398.547 304.097 398.439 304.757 398.223 305.345C398.007 305.933 397.698 306.434 397.296 306.848C396.9 307.262 396.42 307.58 395.856 307.802C395.298 308.024 394.677 308.135 393.993 308.135C393.303 308.135 392.676 308.024 392.112 307.802C391.548 307.58 391.065 307.262 390.663 306.848C390.267 306.434 389.958 305.933 389.736 305.345C389.52 304.757 389.412 304.097 389.412 303.365C389.412 302.639 389.52 301.982 389.736 301.394C389.958 300.806 390.267 300.308 390.663 299.9C391.065 299.492 391.548 299.177 392.112 298.955C392.676 298.733 393.303 298.622 393.993 298.622ZM393.993 306.425C394.761 306.425 395.328 306.167 395.694 305.651C396.066 305.135 396.252 304.379 396.252 303.383C396.252 302.387 396.066 301.628 395.694 301.106C395.328 300.584 394.761 300.323 393.993 300.323C393.213 300.323 392.634 300.587 392.256 301.115C391.884 301.637 391.698 302.393 391.698 303.383C391.698 304.373 391.884 305.129 392.256 305.651C392.634 306.167 393.213 306.425 393.993 306.425ZM406.135 306.416V300.467H403.867C403.807 301.241 403.732 301.94 403.642 302.564C403.552 303.182 403.447 303.734 403.327 304.22C403.207 304.706 403.075 305.129 402.931 305.489C402.793 305.849 402.643 306.158 402.481 306.416H406.135ZM409.987 306.353V310.43C409.987 310.634 409.927 310.796 409.807 310.916C409.693 311.036 409.543 311.096 409.357 311.096H407.971V308H401.059V310.466C401.059 310.622 401.008 310.766 400.906 310.898C400.81 311.03 400.657 311.096 400.447 311.096H399.043V306.416H399.304C399.514 306.416 399.718 306.389 399.916 306.335C400.114 306.275 400.303 306.155 400.483 305.975C400.669 305.795 400.843 305.537 401.005 305.201C401.173 304.859 401.323 304.406 401.455 303.842C401.587 303.272 401.701 302.573 401.797 301.745C401.899 300.917 401.98 299.924 402.04 298.766H408.295V306.353H409.987ZM416.265 304.058C415.623 304.088 415.083 304.145 414.645 304.229C414.207 304.307 413.856 304.409 413.592 304.535C413.328 304.661 413.139 304.808 413.025 304.976C412.911 305.144 412.854 305.327 412.854 305.525C412.854 305.915 412.968 306.194 413.196 306.362C413.43 306.53 413.733 306.614 414.105 306.614C414.561 306.614 414.954 306.533 415.284 306.371C415.62 306.203 415.947 305.951 416.265 305.615V304.058ZM411.171 300.053C412.233 299.081 413.511 298.595 415.005 298.595C415.545 298.595 416.028 298.685 416.454 298.865C416.88 299.039 417.24 299.285 417.534 299.603C417.828 299.915 418.05 300.29 418.2 300.728C418.356 301.166 418.434 301.646 418.434 302.168V308H417.426C417.216 308 417.054 307.97 416.94 307.91C416.826 307.844 416.736 307.715 416.67 307.523L416.472 306.857C416.238 307.067 416.01 307.253 415.788 307.415C415.566 307.571 415.335 307.703 415.095 307.811C414.855 307.919 414.597 308 414.321 308.054C414.051 308.114 413.751 308.144 413.421 308.144C413.031 308.144 412.671 308.093 412.341 307.991C412.011 307.883 411.726 307.724 411.486 307.514C411.246 307.304 411.06 307.043 410.928 306.731C410.796 306.419 410.73 306.056 410.73 305.642C410.73 305.408 410.769 305.177 410.847 304.949C410.925 304.715 411.051 304.493 411.225 304.283C411.405 304.073 411.636 303.875 411.918 303.689C412.2 303.503 412.545 303.341 412.953 303.203C413.367 303.065 413.847 302.954 414.393 302.87C414.939 302.78 415.563 302.726 416.265 302.708V302.168C416.265 301.55 416.133 301.094 415.869 300.8C415.605 300.5 415.224 300.35 414.726 300.35C414.366 300.35 414.066 300.392 413.826 300.476C413.592 300.56 413.385 300.656 413.205 300.764C413.025 300.866 412.86 300.959 412.71 301.043C412.566 301.127 412.404 301.169 412.224 301.169C412.068 301.169 411.936 301.13 411.828 301.052C411.72 300.968 411.633 300.872 411.567 300.764L411.171 300.053ZM434.001 308H432.462C432.066 308 431.766 307.94 431.562 307.82C431.358 307.7 431.196 307.505 431.076 307.235L429.708 304.679C429.594 304.457 429.441 304.292 429.249 304.184C429.063 304.076 428.844 304.022 428.592 304.022H427.863V308H425.712V304.022H424.974C424.728 304.022 424.509 304.076 424.317 304.184C424.125 304.292 423.972 304.457 423.858 304.679L422.49 307.235C422.37 307.505 422.208 307.7 422.004 307.82C421.8 307.94 421.5 308 421.104 308H419.574L421.734 304.193C421.884 303.923 422.055 303.701 422.247 303.527C422.439 303.347 422.685 303.209 422.985 303.113C422.763 303.035 422.574 302.924 422.418 302.78C422.262 302.63 422.112 302.435 421.968 302.195L419.808 298.766H421.563C421.767 298.766 421.953 298.82 422.121 298.928C422.295 299.03 422.43 299.171 422.526 299.351L424.092 302.006C424.206 302.198 424.338 302.342 424.488 302.438C424.644 302.528 424.848 302.573 425.1 302.573H425.712V298.766H427.863V302.573H428.43C428.682 302.573 428.889 302.528 429.051 302.438C429.219 302.342 429.36 302.198 429.474 302.006L431.04 299.351C431.136 299.171 431.268 299.03 431.436 298.928C431.61 298.82 431.802 298.766 432.012 298.766H433.758L431.598 302.195C431.454 302.435 431.304 302.63 431.148 302.78C430.992 302.924 430.803 303.035 430.581 303.113C430.881 303.209 431.127 303.347 431.319 303.527C431.511 303.701 431.682 303.923 431.832 304.193L434.001 308Z" fill="#121212"/>
<g opacity="0.15" filter="url(#filter0_f_4032_21951)">
<path d="M45.0435 307.658C47.4786 305.71 94.3561 213.092 117.49 167.026L180.805 240.69L242.294 133.542L287.954 185.29L353.704 74.4886L412.757 143.283L494.336 13" stroke="#FFCA00" stroke-width="8.52317"/>
<path d="M118.427 174.654L116.553 159.398L180.109 233.343L241.556 126.266L243.031 140.819L181.502 248.039L118.427 174.654Z" fill="#198CFF"/>
<path d="M118.573 174.977C107.104 197.787 91.1788 229.304 77.4447 256.151C69.9848 270.733 63.1645 283.951 58.0536 293.651C55.5001 298.497 53.3614 302.488 51.7783 305.338C50.9894 306.759 50.3192 307.931 49.7948 308.796C49.5353 309.225 49.2849 309.622 49.0569 309.953L49.0389 309.979C48.9105 310.168 48.468 310.817 47.8516 311.31L44.9918 307.05C44.7321 307.258 42.0843 305.068 42 305.172C42.0101 305.158 42.0217 305.142 42.0348 305.123C42.1285 304.986 42.2824 304.747 42.5056 304.379C42.9467 303.651 43.5559 302.589 44.3271 301.2C45.864 298.433 47.968 294.508 50.5131 289.678C55.5996 280.024 62.4012 266.843 69.8568 252.269C84.7658 223.125 102.264 188.465 113.828 165.437L116.534 159.363L118.573 174.977Z" fill="#F3002C"/>
</g>
<path d="M23.0432 309.861C25.4784 307.913 72.3558 215.295 95.4902 169.229L158.805 242.894L220.294 135.745L265.954 187.493L331.704 76.6917L390.757 145.486L472.336 15.2031" stroke="#FFCA00" stroke-width="8.52317"/>
<path d="M96.4268 176.857L94.5527 161.601L158.109 235.546L219.556 128.469L221.031 143.023L159.502 250.242L96.4268 176.857Z" fill="#198CFF"/>
<path d="M96.5727 177.18C85.1035 199.991 69.1787 231.507 55.4446 258.354C47.9847 272.936 41.1644 286.154 36.0535 295.854C33.5 300.7 31.3613 304.691 29.7781 307.541C28.9893 308.962 28.3191 310.134 27.7947 310.999C27.5351 311.428 27.2848 311.825 27.0568 312.156L27.0388 312.183C26.9103 312.371 26.4679 313.02 25.8515 313.513L22.5 309.999C22.8084 310.322 19.5843 307.395 19.5 307.499C19.9411 306.771 21.2288 304.887 22 303.499C23.5369 300.732 25.6408 296.807 28.186 291.976C33.2724 282.323 40.401 269.046 47.8567 254.472C62.7657 225.329 80.2635 190.668 91.828 167.64L94.5337 161.566L96.5727 177.18Z" fill="#F3002C"/>
<path d="M94.3908 102.559C88.8397 102.565 83.5178 104.694 79.5925 108.479C75.6673 112.264 73.4592 117.396 73.4527 122.749C73.446 127.123 74.9278 131.379 77.6707 134.863C77.6707 134.863 78.2418 135.588 78.3351 135.693L94.3908 153.952L110.454 135.684C110.538 135.586 111.111 134.863 111.111 134.863L111.113 134.858C113.854 131.375 115.335 127.121 115.329 122.749C115.322 117.396 113.114 112.264 109.189 108.479C105.264 104.694 99.942 102.565 94.3908 102.559ZM94.3908 130.091C92.8849 130.091 91.4129 129.66 90.1608 128.854C88.9087 128.047 87.9328 126.9 87.3565 125.559C86.7802 124.217 86.6295 122.741 86.9232 121.317C87.217 119.892 87.9422 118.584 89.007 117.557C90.0718 116.531 91.4285 115.831 92.9054 115.548C94.3824 115.265 95.9133 115.41 97.3045 115.966C98.6958 116.522 99.8849 117.463 100.722 118.67C101.558 119.877 102.005 121.297 102.005 122.749C102.002 124.695 101.199 126.561 99.7719 127.938C98.3445 129.314 96.4094 130.089 94.3908 130.091Z" fill="#F3002C"/>
<path d="M217.641 70.6758C212.09 70.6821 206.768 72.8113 202.843 76.5964C198.917 80.3814 196.709 85.5133 196.703 90.8662C196.696 95.2406 198.178 99.4962 200.921 102.98C200.921 102.98 201.492 103.705 201.585 103.81L217.641 122.07L233.704 103.801C233.788 103.704 234.361 102.98 234.361 102.98L234.363 102.975C237.104 99.4923 238.585 95.2385 238.579 90.8662C238.572 85.5133 236.364 80.3814 232.439 76.5964C228.514 72.8113 223.192 70.6821 217.641 70.6758ZM217.641 98.2081C216.135 98.2081 214.663 97.7775 213.411 96.9708C212.159 96.164 211.183 95.0174 210.607 93.6758C210.03 92.3343 209.879 90.858 210.173 89.4338C210.467 88.0096 211.192 86.7014 212.257 85.6746C213.322 84.6478 214.678 83.9486 216.155 83.6653C217.632 83.382 219.163 83.5274 220.555 84.0831C221.946 84.6388 223.135 85.5798 223.972 86.7872C224.808 87.9946 225.255 89.4141 225.255 90.8662C225.252 92.8126 224.449 94.6787 223.022 96.055C221.595 97.4314 219.659 98.2057 217.641 98.2081Z" fill="#198CFF"/>
<path d="M330.422 15C324.87 15.0063 319.549 17.1355 315.623 20.9206C311.698 24.7057 309.49 29.8375 309.483 35.1904C309.477 39.5648 310.959 43.8205 313.702 47.3046C313.702 47.3046 314.273 48.0296 314.366 48.1343L330.422 66.3937L346.485 48.1251C346.569 48.0278 347.142 47.3046 347.142 47.3046L347.144 47.2991C349.885 43.8165 351.366 39.5628 351.36 35.1904C351.353 29.8375 349.145 24.7057 345.22 20.9206C341.295 17.1355 335.973 15.0063 330.422 15ZM330.422 42.5324C328.916 42.5324 327.444 42.1018 326.192 41.295C324.939 40.4883 323.964 39.3416 323.387 38C322.811 36.6585 322.66 35.1822 322.954 33.758C323.248 32.3338 323.973 31.0256 325.038 29.9988C326.103 28.972 327.459 28.2728 328.936 27.9895C330.413 27.7062 331.944 27.8516 333.335 28.4073C334.727 28.963 335.916 29.904 336.752 31.1114C337.589 32.3188 338.035 33.7383 338.035 35.1904C338.033 37.1369 337.23 39.0029 335.803 40.3793C334.375 41.7556 332.44 42.5299 330.422 42.5324Z" fill="#FFCA00"/>
<circle cx="299.5" cy="215.5" r="8.5" fill="#F3002C"/>
<circle cx="299.5" cy="258.5" r="8.5" fill="#198CFF"/>
<circle cx="299.5" cy="301.5" r="8.5" fill="#FFCA00"/>
<defs>
<filter id="filter0_f_4032_21951" x="31.8018" y="0.738281" width="476.146" height="320.57" filterUnits="userSpaceOnUse" color-interpolation-filters="sRGB">
<feFlood flood-opacity="0" result="BackgroundImageFix"/>
<feBlend mode="normal" in="SourceGraphic" in2="BackgroundImageFix" result="shape"/>
<feGaussianBlur stdDeviation="5" result="effect1_foregroundBlur_4032_21951"/>
</filter>
</defs>
</svg>
